<?xml version="1.0" encoding="UTF-8"?>
<svg version="1.1" xmlns="http://www.w3.org/2000/svg" width="134" height="131">
<path d="M0 0 C44.22 0 88.44 0 134 0 C134 43.23 134 86.46 134 131 C89.78 131 45.56 131 0 131 C0 87.77 0 44.54 0 0 Z " fill="#7457FE" transform="translate(0,0)"/>
<path d="M0 0 C44.22 0 88.44 0 134 0 C134 43.23 134 86.46 134 131 C89.78 131 45.56 131 0 131 C0 87.77 0 44.54 0 0 Z M10.5 19.58203125 C4.90622693 28.5990769 4.41866568 36.64060943 4.50390625 47.05859375 C4.50375095 48.61361254 4.50225679 50.16863172 4.49949646 51.72364807 C4.49811808 54.97064489 4.51057404 58.217197 4.53344727 61.46411133 C4.56180664 65.60071718 4.55909358 69.73658395 4.54635715 73.87324429 C4.53936045 77.08114293 4.54723485 80.28887449 4.55961418 83.49675179 C4.56409171 85.02078673 4.56449829 86.54483986 4.56054878 88.06887627 C4.54373208 100.26702559 5.24157193 110.80759576 14 120 C20.72967543 126.15519094 27.12826983 128.22161236 36.30541992 128.32226562 C36.99917725 128.33219543 37.69293457 128.34212524 38.40771484 128.35235596 C40.68200793 128.38134366 42.95602198 128.39516076 45.23046875 128.40625 C46.40643836 128.41473213 46.40643836 128.41473213 47.60616493 128.42338562 C51.75674385 128.45326995 55.90718558 128.47179038 60.05786133 128.48046875 C64.31348923 128.49141231 68.56782896 128.53943712 72.82305431 128.59641266 C76.1236572 128.63393218 79.42395825 128.6440906 82.72475624 128.6471405 C84.29187356 128.65313688 85.85898926 128.66899933 87.42589378 128.69551086 C98.36658902 128.86738595 107.45314586 127.54154072 116.13713074 120.19104004 C125.16993269 110.77919852 125.62688641 99.81308805 125.6015625 87.4765625 C125.60935623 85.88291994 125.61802958 84.28928147 125.62753296 82.69564819 C125.64238066 79.36890141 125.64193167 76.04257941 125.63134766 72.71582031 C125.61976812 68.48370225 125.65362745 64.25333771 125.700037 60.02150917 C125.72971413 56.73371473 125.73122816 53.44633289 125.72501755 50.15842819 C125.72603391 48.59972029 125.73631746 47.04098616 125.75664139 45.48241043 C125.88127346 34.5902101 124.50267897 25.50318294 117.1913147 16.86245728 C107.77758353 7.83111778 96.81404099 7.37311164 84.4765625 7.3984375 C82.88291994 7.39064377 81.28928147 7.38197042 79.69564819 7.37246704 C76.36890141 7.35761934 73.04257941 7.35806833 69.71582031 7.36865234 C65.48370225 7.38023188 61.25333771 7.34637255 57.02150917 7.299963 C53.73371473 7.27028587 50.44633289 7.26877184 47.15842819 7.27498245 C45.59972029 7.27396609 44.04098616 7.26368254 42.48241043 7.24335861 C29.74098087 7.09756706 19.1170797 9.41657004 10.5 19.58203125 Z " fill="#F7F7F8" transform="translate(0,0)"/>
<path d="M0 0 C1.15628906 0.00607269 1.15628906 0.00607269 2.3359375 0.01226807 C3.12742187 0.01035461 3.91890625 0.00844116 4.734375 0.00646973 C6.4088574 0.00510789 8.08335035 0.00880425 9.7578125 0.01715088 C12.32576131 0.02785067 14.89301053 0.01725582 17.4609375 0.00445557 C19.08593905 0.00577716 20.71094016 0.00833956 22.3359375 0.01226807 C23.10679688 0.0082196 23.87765625 0.00417114 24.671875 0 C30.10601618 0.04797174 30.10601618 0.04797174 32.3359375 2.27789307 C32.90113753 4.93326679 33.07381948 7.5693402 33.3359375 10.27789307 C33.7278125 9.61789307 34.1196875 8.95789307 34.5234375 8.27789307 C36.3359375 6.27789307 36.3359375 6.27789307 38.8359375 5.84039307 C41.3359375 6.27789307 41.3359375 6.27789307 43.2109375 7.46539307 C44.3359375 9.27789307 44.3359375 9.27789307 44.1484375 11.84039307 C43.3359375 14.27789307 43.3359375 14.27789307 41.3359375 16.27789307 C38.64754365 16.54781213 36.04451814 16.36526664 33.3359375 16.27789307 C33.28695312 17.48187744 33.23796875 18.68586182 33.1875 19.92633057 C33.11247407 21.50187504 33.03692617 23.07739473 32.9609375 24.65289307 C32.91453125 25.84398682 32.91453125 25.84398682 32.8671875 27.05914307 C32.5625 33.05133057 32.5625 33.05133057 30.3359375 35.27789307 C27.75529621 35.42287291 25.28649866 35.46466852 22.7109375 35.40289307 C22.00453125 35.39386963 21.298125 35.38484619 20.5703125 35.37554932 C18.82537652 35.3519691 17.08061455 35.31609767 15.3359375 35.27789307 C14.6759375 36.92789307 14.0159375 38.57789307 13.3359375 40.27789307 C12.6759375 40.27789307 12.0159375 40.27789307 11.3359375 40.27789307 C10.6759375 38.62789307 10.0159375 36.97789307 9.3359375 35.27789307 C8.27632812 35.30109619 7.21671875 35.32429932 6.125 35.34820557 C4.7369862 35.36696251 3.3489648 35.38516279 1.9609375 35.40289307 C1.26226562 35.41965088 0.56359375 35.43640869 -0.15625 35.45367432 C-1.99303736 35.47133573 -3.83008213 35.38092567 -5.6640625 35.27789307 C-8.68499465 32.25696092 -8.13083084 28.71417235 -8.2890625 24.65289307 C-8.32773437 23.85109619 -8.36640625 23.04929932 -8.40625 22.22320557 C-8.50060181 20.24181751 -8.58342465 18.25988661 -8.6640625 16.27789307 C-10.58025391 16.31463135 -10.58025391 16.31463135 -12.53515625 16.35211182 C-16.40625 16.42633057 -16.40625 16.42633057 -18.7265625 15.09039307 C-19.6640625 13.27789307 -19.6640625 13.27789307 -19.4765625 10.71539307 C-18.6640625 8.27789307 -18.6640625 8.27789307 -16.6640625 6.27789307 C-14.2265625 5.90289307 -14.2265625 5.90289307 -11.6640625 6.27789307 C-9.8515625 8.27789307 -9.8515625 8.27789307 -8.6640625 10.27789307 C-8.5403125 8.99914307 -8.4165625 7.72039307 -8.2890625 6.40289307 C-7.73157074 0.64214492 -5.61877356 0.04960165 0 0 Z " fill="#FDFDFF" transform="translate(52.6640625,36.72210693359375)"/>
<path d="M0 0 C3.55872335 1.18624112 3.61447727 1.75283778 5.25 4.9375 C7.09048277 8.08376871 8.25650481 9.53018313 11.8125 10.5 C12.864375 10.665 13.91625 10.83 15 11 C16.32278481 16.41139241 16.32278481 16.41139241 14.9375 18.9375 C12.08906752 20.49954362 10.06495097 19.74921024 7 19 C6.82984375 18.41992188 6.6596875 17.83984375 6.484375 17.2421875 C4.91927222 12.19722855 2.96959769 8.40319658 0 4 C0 2.68 0 1.36 0 0 Z " fill="#F9F7FE" transform="translate(74,73)"/>
<path d="M0 0 C0.66 0 1.32 0 2 0 C1.61346283 3.28556598 0.96546091 5.05013739 -0.9375 7.8125 C-3.38911882 11.60136546 -4.09151806 14.60900394 -5 19 C-10.41139241 20.32278481 -10.41139241 20.32278481 -12.9375 18.9375 C-14.49954362 16.08906752 -13.74921024 14.06495097 -13 11 C-11.96875 10.855625 -10.9375 10.71125 -9.875 10.5625 C-5.17741029 9.29519892 -3.58150075 5.92786706 -1.26171875 1.8984375 C-0.84535156 1.27195312 -0.42898437 0.64546875 0 0 Z " fill="#F9F8FF" transform="translate(54,73)"/>
<path d="M0 0 C2.625 0.5 2.625 0.5 5 3.25 C6.625 6.5 6.625 6.5 6.375 8.875 C6.00375 9.679375 6.00375 9.679375 5.625 10.5 C-1.74542925 10.86248013 -1.74542925 10.86248013 -4.4375 9.3125 C-5.375 7.5 -5.375 7.5 -5.1875 4.9375 C-4.133173 1.77451901 -3.30058905 0.69486085 0 0 Z " fill="#EDEEFF" transform="translate(38.375,42.5)"/>
<path d="M0 0 C2.5 0.4375 2.5 0.4375 4.375 1.625 C5.5 3.4375 5.5 3.4375 5.3125 6 C4.5 8.4375 4.5 8.4375 2.5 10.4375 C0.3359375 10.6328125 0.3359375 10.6328125 -2.125 10.5625 C-2.94226563 10.54445313 -3.75953125 10.52640625 -4.6015625 10.5078125 C-5.22804688 10.48460937 -5.85453125 10.46140625 -6.5 10.4375 C-5.42173913 0.94880435 -5.42173913 0.94880435 0 0 Z " fill="#F0ECFF" transform="translate(91.5,42.5625)"/>
<path d="M0 0 C3.50910665 1.16970222 3.78174698 1.85048928 5.5625 4.9375 C6.94197027 7.30537576 8.04971701 9.04971701 10 11 C9.01 11 8.02 11 7 11 C6.67 11.99 6.34 12.98 6 14 C5.17886823 12.60922699 4.36847505 11.21211107 3.5625 9.8125 C3.11003906 9.03519531 2.65757813 8.25789063 2.19140625 7.45703125 C0.97608501 4.95068023 0.42373425 2.74209635 0 0 Z " fill="#C6B2FE" transform="translate(74,73)"/>
<path d="M0 0 C0.66 0 1.32 0 2 0 C1.41892368 3.7602985 0.34800504 6.53035032 -1.5625 9.8125 C-2.01753906 10.60269531 -2.47257812 11.39289063 -2.94140625 12.20703125 C-3.46541016 13.09455078 -3.46541016 13.09455078 -4 14 C-4.33 13.01 -4.66 12.02 -5 11 C-5.99 10.67 -6.98 10.34 -8 10 C-7.4225 9.46375 -6.845 8.9275 -6.25 8.375 C-3.85330162 5.98654731 -3.85330162 5.98654731 -1.875 2.75 C-1.25625 1.8425 -0.6375 0.935 0 0 Z " fill="#C3B7FF" transform="translate(54,73)"/>
</svg>
